<?xml version="1.0" encoding="utf-8"?>
<!-- Generator: Adobe Illustrator 25.2.1, SVG Export Plug-In . SVG Version: 6.00 Build 0)  -->
<svg version="1.1" id="Layer_1" xmlns="http://www.w3.org/2000/svg" xmlns:xlink="http://www.w3.org/1999/xlink" x="0px" y="0px"
	 viewBox="0 0 987.3 236.5" style="enable-background:new 0 0 987.3 236.5;" xml:space="preserve">
<style type="text/css">
	.st0{display:none;}
	.st1{display:inline;fill:#158C75;stroke:#000000;stroke-miterlimit:10;}
	.st2{fill:#FFFFFF;}
	.st3{fill:#FCD603;}
	.st4{fill:#265FAC;}
</style>
<g id="Layer_2_1_" class="st0">
	<rect x="-42" y="-41.1" class="st1" width="1088" height="347"/>
</g>
<g id="Layer_1_1_">
	<g>
		<path class="st2" d="M422.8,136.8c9.6,0,16.2,4.2,19.7,10.2v-9.3h23.4v67h-23.4v-9.3c-3.5,6-10.3,10.2-19.7,10.2
			c-15.9,0-28.5-13-28.5-34.4S406.9,136.8,422.8,136.8z M430.3,157.2c-6.7,0-12.2,4.8-12.2,13.9c0,9,5.5,14,12.2,14
			c6.6,0,12.2-4.9,12.2-14C442.5,162.1,436.9,157.2,430.3,157.2z"/>
		<path class="st2" d="M509.4,136.8c17,0,29.4,9.7,32.7,26.5h-24.8c-1.3-4.1-3.9-6.6-8.4-6.6c-5.7,0-9.6,4.8-9.6,14.3
			c0,9.7,3.8,14.4,9.6,14.4c4.4,0,7-2.4,8.4-6.6h24.8c-3.3,16.6-15.8,26.5-32.7,26.5c-19.9,0-33.9-13-33.9-34.4
			C475.4,149.8,489.4,136.8,509.4,136.8z"/>
		<path class="st2" d="M576.5,136.8c9.6,0,16.2,4.2,19.7,10.2v-9.3h23.4v67h-23.4v-9.3c-3.5,6-10.3,10.2-19.7,10.2
			c-15.9,0-28.5-13-28.5-34.4S560.6,136.8,576.5,136.8z M584,157.2c-6.7,0-12.2,4.8-12.2,13.9c0,9,5.5,14,12.2,14
			c6.6,0,12.2-4.9,12.2-14C596.2,162.1,590.6,157.2,584,157.2z"/>
		<path class="st2" d="M657.8,136.8c8.8,0,15.8,3.9,19.5,10v-30.6h23.5v88.4h-23.5v-9.3c-3.5,6-10.2,10.2-19.6,10.2
			c-15.9,0-28.5-13-28.5-34.4S641.8,136.8,657.8,136.8z M665.2,157.2c-6.7,0-12.2,4.8-12.2,13.9c0,9,5.5,14,12.2,14
			c6.6,0,12.2-4.9,12.2-14C677.4,162.1,671.8,157.2,665.2,157.2z"/>
		<path class="st2" d="M744.4,205.4c-19.8,0-34-13-34-34.4c0-21.3,14-34.3,34-34.3c19.8,0,33.8,12.8,33.8,33.6
			c0,1.8-0.1,3.7-0.4,5.5h-44.3c0.5,7.8,4.7,10.9,9.9,10.9c4.5,0,7-2.5,8.4-5.3h25C773.6,195.2,761.1,205.4,744.4,205.4z
			 M733.6,164.5h20.7c0-6-4.7-9.2-10-9.2C738.6,155.3,734.7,158.4,733.6,164.5z"/>
		<path class="st2" d="M879,168.7c0-7.3-4.4-11.3-11.1-11.3c-6.8,0-11.1,4.1-11.1,11.3v35.9h-23.4v-35.9c0-7.3-4.3-11.3-11-11.3
			c-6.9,0-11.2,4.1-11.2,11.3v35.9h-23.4v-67h23.4v8.8c3.8-5.4,10.4-9.4,19.5-9.4c10,0,17.9,4.5,22.3,12.3
			c4.5-6.8,12.4-12.3,22.3-12.3c17,0,27.1,11,27.1,28.5v39H879V168.7L879,168.7z"/>
		<path class="st2" d="M961.6,137.6h25.7l-42.5,98.9h-25.4l16-34.8l-27.5-64.1h26l14.1,38L961.6,137.6z"/>
	</g>
	<g>
		<path class="st2" d="M425.3,106.9c-15.9,0-27.2-8.9-27.4-22h11c0.7,6.6,5.4,13.2,16.4,13.2c10,0,15.9-5.7,15.9-13.2
			c0-21.4-42.9-7.7-42.9-37.2c0-13.1,10.6-22,26.3-22c15.1,0,25,8.3,26.3,20.4h-11.4c-0.7-5.4-5.7-11.4-15.4-11.5
			c-8.5-0.2-15.3,4.2-15.3,12.8c0,20.5,42.8,7.7,42.8,37.1C451.7,95.8,442.5,106.9,425.3,106.9z"/>
		<path class="st2" d="M557,70.9c0-12.8-6.8-19.2-17.1-19.2c-10.5,0-17.6,6.7-17.6,20.2v34.4h-10.2V71c0-12.8-6.8-19.2-17.1-19.2
			c-10.5,0-17.6,6.7-17.6,20.2v34.4H467V43.8h10.4v9c4.1-6.6,11.5-10.1,19.7-10.1c10.2,0,18.8,4.6,22.9,13.9
			c3.6-9,12.5-13.9,22.1-13.9c14.2,0,25.3,8.9,25.3,26.8v36.8h-10.2V70.9H557z"/>
		<path class="st2" d="M610,42.7c11.6,0,19.6,5.9,23.2,12.4V43.8h10.5v62.4h-10.5V94.6c-3.8,6.7-11.8,12.6-23.3,12.6
			c-16.6,0-29.5-13.1-29.5-32.5S593.2,42.7,610,42.7z M612,51.7c-11.4,0-21.1,8.3-21.1,23S600.6,98,612,98s21.2-8.5,21.2-23.2
			C633.2,60.4,623.4,51.7,612,51.7z"/>
		<path class="st2" d="M671.6,106.1h-10.4V43.8h10.4v10.1c3.5-6.9,10.2-11.3,20.2-11.3v10.7h-2.7c-9.9,0-17.4,4.4-17.4,18.9
			L671.6,106.1L671.6,106.1z"/>
		<path class="st2" d="M706,52.3h-8.1v-8.5h8.1V28h10.4v15.8h16.3v8.5h-16.3v36.8c0,6.1,2.3,8.3,8.7,8.3h7.6v8.8h-9.3
			c-11,0-17.3-4.6-17.3-17.1V52.3H706z"/>
	</g>
</g>
<path class="st3" d="M235.8,103.8v36.9H162v-36.9H97.1v101.8h203.7V103.8L235.8,103.8L235.8,103.8z"/>
<polygon class="st4" points="300.7,2 300.7,103.8 235.8,103.8 235.8,66.9 162,66.9 162,103.8 97.1,103.8 97.1,2 "/>
<rect x="2" y="66.9" class="st4" width="73.8" height="36.9"/>
<rect x="2" y="103.8" class="st3" width="73.8" height="36.9"/>
</svg>
